<svg height="40" viewBox="0 0 62 40" width="62" xmlns="http://www.w3.org/2000/svg"><g fill="none" fill-rule="evenodd"><rect fill="#fff" height="17" rx="3" stroke="#000" stroke-opacity=".1" width="23" x="19.5" y="11.5"/><g transform="translate(24.813 14.938)"><path d="m4.33297886 6.1875h2.90166452c.75978861 0 1.0086535.33230864 1.0086535.84929019 0 .56868996-.45851195.81974252-.93012684.8566771.48471783.0443215.94322978.11080375.94322978.78280794 0 .4504993-.23576195.88622477-1.06106526.88622477h-2.8623557zm1.43440809 2.68822197h.7597886c.28171324 0 .36679136-.13296449.36679136-.33230864 0-.18467291-.08507812-.3176374-.36679136-.3176374h-.7597886zm0-1.27024182h.72703125c.26861029 0 .37334283-.11819066.37334283-.3176374 0-.21411798-.10473254-.33230864-.35368842-.33230864h-.74668566zm-2.11567004 1.7783165c-.34058548.11433438-.78599448.17870335-1.1855432.17870335-1.42130514 0-2.45625551-.43617921-2.45625551-1.70895632 0-1.1654955 1.00874448-1.66604368 2.38418934-1.66604368.38644577 0 .8711636.04291264 1.25760937.17155124v1.1369864c-.28162224-.19310689-.56324448-.30754061-.97589614-.30754061-.51747518 0-1.05460478.2932364-1.05460478.69365508 0 .40757078.5371296.69355574 1.05460478.69355574.39954872 0 .6942739-.1286386.97589614-.30744128zm8.65258179 0c-.3405855.11433438-.7859945.17870335-1.1855432.17870335-1.42130513 0-2.46280697-.43617921-2.46280697-1.70895632 0-1.1654955 1.00874448-1.66604368 2.39074077-1.66604368.3798943 0 .8711636.04291264 1.2576094.17155124v1.1369864c-.2947252-.19310689-.5763474-.30754061-.9758961-.30754061-.5240267 0-1.0546048.2932364-1.0546048.69365508 0 .40757078.5174752.69355574 1.0546048.69355574.3995487 0 .6811709-.1286386.9758961-.30744128z" fill="#003466"/><g fill="#019acc"><path d="m6.33072243 4.25075893c1.14623437 0 2.07636121-.93748929 2.07636121-2.09127322 0-1.14066964-.93012684-2.07815892-2.07636121-2.07815892-1.15278585 0-2.08291269.93748928-2.08291269 2.07815892 0 1.15378393.93012684 2.09127322 2.08291269 2.09127322"/><path d="m5.87221048 4.70966786c-.6942739 0-1.30346967-.26884286-1.68336397-.56382322-2.26626287.23605715-4.18884651.5769375-4.18884651.5769375v.90221786h12.375v-1.87905s-2.1470625-.01311429-4.49849449.10491429c-.39954871.42612321-1.11347702.85880357-2.00429503.85880357z"/></g></g></g></svg>