<svg fill="none" height="24" viewBox="0 0 32 24" width="32" xmlns="http://www.w3.org/2000/svg"><path d="m4.12903.5h23.74197c1.9991 0 3.629 1.63976 3.629 3.67391v15.65219c0 2.0341-1.6299 3.6739-3.629 3.6739h-23.74197c-1.99917 0-3.62903-1.6398-3.62903-3.6739v-15.65219c0-2.03415 1.62986-3.67391 3.62903-3.67391z" fill="#fff" stroke="#e6e6e6"/><path d="m23.7419 12.1512c-.0101.0201-.0101.0201-.0201.0302-1.0088.9851-1.9973 1.9803-3.0262 2.9353-.7868.7339-1.7047 1.2868-2.7538 1.5883-2.1385.6032-4.1257.2614-5.9414-1.0253-.6153-.4323-1.1499-.945-1.6846-1.4677-.6758-.6635-1.34155-1.3269-2.00731-1.9904-.02017-.0201-.03026-.0402-.05043-.0603.01008-.0201.02017-.0302.04035-.0503.88767-.8746 1.75519-1.7492 2.65289-2.61368.7364-.71374 1.5636-1.31689 2.5319-1.68884 2.2495-.86453 4.3779-.61321 6.3852.72379.6961.46242 1.2912 1.03542 1.8863 1.61843.6456.6334 1.2811 1.2767 1.9166 1.91.0101.0302.0404.0604.0706.0905zm-13.5874 0c.0201.0201.0403.0503.0605.0704.464.4624.9179.9248 1.3819 1.3772.464.4624.9381.9148 1.4828 1.2867 1.4324.9651 2.9758 1.1762 4.6099.6233.8272-.2815 1.5232-.7841 2.1486-1.3873.6556-.6333 1.3012-1.2767 1.9468-1.92.0202-.0201.0303-.0402.0404-.0603-.0202-.0201-.0404-.0403-.0505-.0604-.4539-.4523-.8977-.9147-1.3618-1.3571-.4236-.4021-.8473-.81422-1.3113-1.16607-1.3517-1.02536-2.8648-1.31689-4.509-.87457-.8977.24126-1.6442.73384-2.3099 1.35714-.7162.6735-1.4022 1.3671-2.0982 2.0507 0 .0302-.0101.0402-.0302.0603z" fill="#000"/></svg>