<svg fill="none" height="24" viewBox="0 0 32 24" width="32" xmlns="http://www.w3.org/2000/svg"><path d="m28 0h-24c-2.20914 0-4 1.79086-4 4v16c0 2.2091 1.79086 4 4 4h24c2.2091 0 4-1.7909 4-4v-16c0-2.20914-1.7909-4-4-4z" fill="#eb008b"/><g clip-rule="evenodd" fill="#fff" fill-rule="evenodd"><path d="m13 9.75v4.049h1.0538v-1.59h1.1404v-.8585h-1.1404v-.6789h1.8531v-.9216z"/><path d="m17.9462 13.0723c-.4957 0-.9311-.5337-.9311-1.2007 0-.6642.4354-1.2049.9311-1.2049.3659 0 .683.2955.8274.7193l.9942-.286c-.2913-.7922-.9942-1.35-1.8216-1.35-1.0759 0-1.9462.952-1.9462 2.1216 0 1.1669.8703 2.115 1.9462 2.115.8274 0 1.5303-.5609 1.8216-1.3479l-.9942-.2815c-.1444.4148-.4615.7151-.8274.7151z"/><path d="m7.75 11.6071c0 4.9443 3.7073 8.6429 8.6429 8.6429 4.1553 0 7.8571-3.6986 7.8571-8.6429 0-4.15769-3.7018-7.8571-7.8571-7.8571-4.9356 0-8.6429 3.69941-8.6429 7.8571zm1.57143 0c0-3.28911 2.99767-6.28567 6.28567-6.28567 4.0687 0 7.0715 2.99656 7.0715 6.28567 0 4.0694-3.0028 7.0715-7.0715 7.0715-3.288 0-6.28567-3.0021-6.28567-7.0715z"/></g></svg>