<svg fill="none" height="24" viewBox="0 0 32 24" width="32" xmlns="http://www.w3.org/2000/svg" xmlns:xlink="http://www.w3.org/1999/xlink"><mask id="a" height="24" maskUnits="userSpaceOnUse" width="32" x="0" y="0"><rect fill="#00b7f1" height="24" rx="4" width="32"/></mask><path d="m26.3997 0h-20.79945c-3.09293 0-5.60025 2.50732-5.60025 5.60025v12.79945c0 3.093 2.50732 5.6003 5.60025 5.6003h20.79945c3.093 0 5.6003-2.5073 5.6003-5.6003v-12.79945c0-3.09293-2.5073-5.60025-5.6003-5.60025z" fill="#fff"/><g mask="url(#a)"><rect fill="#00b7f1" height="24" rx="4" width="32"/><path d="m20 21c-7.8375 3.1425-15.87688 1.5526-20-1v4h32v-11c-2.5982 3.2708-6.6289 5.846-12 8z" fill="#9fcd5a"/></g><g fill="#fff"><path d="m27 10c-.7258 2.3226-6.1427 6.5059-9.3928 7.8625-4.74 1.9792-9.21041 1.1-11.704-.5076v-7.56038c1.55734-1.90573 4.6194-4.01504 7.6092-5.2986-.2073.09631.2003-.10316 0 0 4.8071-2.24077 9.6176-1.92855 10.7476.69747s-2.479 6.14411-7.283 8.38671c-.3267.1521-.6524.2921-.977.4199 4.2394-2.2919 7.3877-5.45938 6.334-7.90784-.9779-2.26816-4.708-2.77238-8.8062-1.42764-4.41392 2.09515-7.34495 5.42078-7.23231 8.14628.48215-.666 1.50957-1.4283 2.80524-2.0112 1.99657-.89736 3.86287-1.02653 4.16837-.2898.3056.7367-1.0655 2.0618-3.062 2.9588-1.43335.6445-2.79652.8901-3.56621.7061 1.39561 2.7616 6.43891 4.1826 11.77851 1.9533 2.8854-1.2042 7.1661-4.298 8.5806-6.128z"/><path d="m4.93309 11.7271c.22266-.3473.4652-.6969.72575-1.0339.00726.0851.0145.1758.02168.2715.05387.7189.10199 1.6972.12605 2.6722.02411.977.02379 1.9401-.01757 2.6323-.01094.183-.02443.3409-.04.4719-1.46752-1.2755-1.84842-3.4037-.81591-5.014z" stroke="#fff" stroke-width=".774194"/></g></svg>