<svg fill="none" height="24" viewBox="0 0 32 24" width="32" xmlns="http://www.w3.org/2000/svg"><path d="m28 0h-24c-2.20914 0-4 1.79086-4 4v16c0 2.2091 1.79086 4 4 4h24c2.2091 0 4-1.7909 4-4v-16c0-2.20914-1.7909-4-4-4z" fill="#652189"/><g fill="#fff"><path d="m6 15.5732.37051-1.2968c.7336.2149 1.34123.3779 2.08225.3779.89663 0 1.10411-.1704 1.21526-.8373.03706-.1631.04447-.2964.04447-.4002 0-.3483-.22972-.4372-1.1634-.6743-1.27454-.3186-1.74879-.7707-1.74879-1.6673 0-.2445.03705-.5187.08892-.8299.33345-1.69695.79288-2.04523 2.86773-2.04523.58535 0 1.54875.12598 2.23045.29641l-.2964 1.41534c-.6743-.16303-1.5487-.26677-2.06003-.26677-.82993 0-.98555.11116-1.08929.72615-.02223.1705-.04446.3113-.04446.415 0 .3705.22972.4224 1.12634.6521 1.42274.3557 1.81554.7929 1.81554 1.571 0 .2445-.0371.5039-.089.8151-.2741 1.5709-.8299 2.2527-2.99367 2.2527-.64469 0-1.75621-.2149-2.35643-.5039z"/><path d="m17.8044 9.65987c-.1779 1.13373-.8374 1.65243-2.2231 2.08963l1.8081 2.1267c.2371-.4594.4372-1.0077.6224-1.6746h.4002c-.2297.7928-.4669 1.4449-.7633 1.9785l1.3635 1.5635-.326.2964-1.2672-1.4894c-.7114 1.0819-1.6154 1.5191-2.7862 1.5191-1.9044 0-2.4898-.956-2.2453-2.4899.2075-1.3116 1.0152-1.897 2.2601-2.2823-.3334-.5039-.4298-.9855-.326-1.64504.1556-.96332.9188-1.65246 1.9933-1.65246 1.2523 0 1.6451.68914 1.4895 1.65987zm-2.7196 1.51913.252.2964c1.356-.4372 1.9118-.83 2.0674-1.82294.126-.79288-.163-1.28936-1.1486-1.28936-.8818 0-1.4227.54835-1.5339 1.28936-.1037.61504.0445 1.14854.3631 1.52654zm2.0823 3.09-2.2972-2.6973c-1.2375.3483-1.9118.904-2.0822 2.0007-.2149 1.3635.3779 2.1267 1.9266 2.1267 1.0374-.0074 1.8377-.4372 2.4528-1.4301z"/><path d="m22.2727 11.4976h2.927l-.2667 1.482h-2.927l-.5188 2.9863h-1.6895l1.3413-7.64727h4.861l-.2667 1.48944h-3.1716z"/></g></svg>