<svg fill="none" height="24" viewBox="0 0 32 24" width="32" xmlns="http://www.w3.org/2000/svg"><path d="m27.871 0h-23.74197c-2.2804 0-4.12903 1.86872-4.12903 4.17391v15.65219c0 2.3052 1.84863 4.1739 4.12903 4.1739h23.74197c2.2804 0 4.129-1.8687 4.129-4.1739v-15.65219c0-2.30519-1.8486-4.17391-4.129-4.17391z" fill="#00a3e2"/><path d="m2 13c0-1.1046.89543-2 2-2h24c1.1046 0 2 .8954 2 2v7c0 1.1046-.8954 2-2 2h-24c-1.10457 0-2-.8954-2-2z" fill="#fff"/><path d="m5.32037 4.482h1.773v4.518h1.161v-4.518h1.78203v-1.008h-4.71603zm7.18463.477c-.063-.036-.234-.072-.423-.072-.396 0-.729.198-.9.486v-.396h-1.116v4.023h1.116v-2.493c.081-.369.387-.567.765-.567.207 0 .405.045.558.135zm3.6263 4.041v-2.565c0-.963-.621-1.548-1.692-1.548-.918 0-1.575.558-1.692 1.287h1.062c.09-.234.279-.378.594-.378.45 0 .657.279.657.621v.297c-.162-.117-.567-.234-.918-.234-.873 0-1.557.522-1.557 1.287 0 .837.684 1.305 1.494 1.305.441 0 .846-.153.981-.288v.216zm-1.071-1.098c-.099.216-.405.351-.729.351-.351 0-.711-.144-.711-.495 0-.342.36-.495.711-.495.324 0 .63.135.729.351zm3.8257 1.098 1.53-4.023h-1.125l-.909 2.673-.927-2.673h-1.17l1.521 4.023zm4.1911-1.314c-.09.342-.369.504-.747.504-.495 0-.837-.36-.873-.963h2.682v-.342c0-1.179-.648-1.998-1.827-1.998-1.125 0-1.935.891-1.935 2.106 0 1.242.783 2.097 1.953 2.097 1.008 0 1.638-.549 1.782-1.404zm-.756-1.89c.459 0 .711.333.72.756h-1.557c.099-.495.405-.756.837-.756zm3.3727-2.646h-1.116v5.85h1.116z" fill="#fff"/><path d="m7.37473 16.237c0 1.692 1.098 2.853 2.574 2.853 1.30497 0 2.10597-.765 2.31297-1.881h-1.143c-.189.513-.531.855-1.16997.855-.882 0-1.404-.783-1.404-1.827 0-1.053.522-1.827 1.404-1.827.63897 0 .98097.342 1.16997.846h1.143c-.207-1.107-1.008-1.872-2.31297-1.872-1.476 0-2.574 1.161-2.574 2.853zm5.34267 2.763h1.116v-2.547c.09-.351.387-.558.729-.558.441 0 .657.288.657.711v2.394h1.116v-2.628c0-.891-.513-1.485-1.422-1.485-.468 0-.864.207-1.08.459v-2.196h-1.116zm6.722-1.314c-.09.342-.369.504-.747.504-.495 0-.837-.36-.873-.963h2.682v-.342c0-1.179-.648-1.998-1.827-1.998-1.125 0-1.935.891-1.935 2.106 0 1.242.783 2.097 1.953 2.097 1.008 0 1.638-.549 1.782-1.404zm-.756-1.89c.459 0 .711.333.72.756h-1.557c.099-.495.405-.756.837-.756zm4.8749 4.689h1.116v-5.508h-1.116v.333c-.18-.216-.576-.423-1.008-.423-1.17 0-1.836.972-1.836 2.106s.666 2.097 1.836 2.097c.432 0 .828-.207 1.008-.423zm0-2.835c-.135.279-.432.468-.756.468-.603 0-.963-.486-.963-1.125 0-.648.36-1.134.963-1.134.333 0 .621.198.756.468z" fill="#00a3e2"/></svg>