<svg fill="none" height="24" viewBox="0 0 32 24" width="32" xmlns="http://www.w3.org/2000/svg"><path d="m28 0h-24c-2.20914 0-4 1.79086-4 4v16c0 2.2091 1.79086 4 4 4h24c2.2091 0 4-1.7909 4-4v-16c0-2.20914-1.7909-4-4-4z" fill="#005cae"/><path d="m14.25 0h-14.25v9.75h14.25z" fill="#fff" transform="matrix(.98768834 -.15643447 .15643447 .98768834 7.99646 8.60211)"/><path clip-rule="evenodd" d="m1.59075 1.26.67725-1.26h.88725l-1.1655 2.079v1.1445h-.84525v-1.1445l-1.1445-2.079h.9135zm4.10025.78225c0 .72975-.48825 1.23375-1.2075 1.23375-.714 0-1.2075-.504-1.2075-1.23375s.4935-1.23375 1.2075-1.23375c.71925 0 1.2075.504 1.2075 1.23375zm-.8085 0c0-.3255-.14175-.5565-.399-.5565-.252 0-.39375.231-.39375.5565s.14175.55125.39375.55125c.25725 0 .399-.22575.399-.55125zm3.402-1.18125v2.3625h-.82425v-.20475c-.126.147-.36225.25725-.63.25725-.51975 0-.8295-.34125-.8295-.86625v-1.54875h.819v1.3545c0 .1995.0945.34125.3045.34125.15225 0 .294-.09975.336-.2625v-1.43325zm2.0265-.0105v.79275c-.0997-.0525-.21-.0735-.34125-.0735-.22575 0-.378.09975-.42.26775v1.386h-.82425v-2.3625h.82425v.21c.1155-.1575.29925-.2625.53545-.2625.105 0 .1891.021.2258.042zm-5.922 5.031h-.49875v-.63h1.3335v.32025c0 .8925-.588 1.45425-1.44375 1.45425-.9345 0-1.596-.6825-1.596-1.66425s.6615-1.66425 1.5855-1.66425c.8295 0 1.30725.47775 1.428 1.134h-.861c-.08925-.24675-.2625-.39375-.567-.39375-.46725 0-.735.3885-.735.924 0 .55125.2835.924.7455.924.32025 0 .53025-.1575.609-.40425zm1.995-1.2705v2.3625h-.82425v-2.3625zm.05775-.6405c0 .26775-.21525.441-.46725.441s-.46725-.17325-.46725-.441c0-.273.21525-.44625.46725-.44625s.46725.17325.46725.44625zm1.89-.39375v.672c-.05775-.0315-.12075-.04725-.19425-.04725-.18375 0-.294.0945-.294.2835v.126h.45675v.6405h-.45675v1.722h-.81375v-1.722h-.35175v-.6405h.35175v-.17325c0-.567.34125-.924.91875-.924.1575 0 .2835.02625.38325.063zm.44625 2.583v-.90825h-.3465v-.6405h.3465v-.651h.81375v.651h.49345v.6405h-.49345v.7875c0 .18375.08925.2625.252.2625.08925 0 .18905-.021.26255-.0525v.69825c-.0945.042-.27305.0735-.4568.0735-.5565 0-.8715-.2625-.8715-.861z" fill="#005cae" fill-rule="evenodd" transform="matrix(.98768834 -.15643447 .15643447 .98768834 9.59146 9.63254)"/></svg>