<svg fill="#000000" xmlns="http://www.w3.org/2000/svg" viewBox="0 0 50 50" width="500px" height="500px"><path d="M49.962 21.444c.108-.382-.02-.792-.325-1.045-.106-.088-2.465-1.98-6.266-1.333-1.066-3.471-3.806-5.063-3.932-5.135-.361-.205-.812-.166-1.132.099-.1.083-2.447 2.075-2.077 6.177.094 1.03.352 1.956.769 2.765C36.178 23.43 34.776 24 32.507 24H1.138c-.484 0-.898.347-.984.823C.147 24.858 0 25.691 0 26.759c0 .698.067 1.438.19 2.195 1.146-.273 3.224-.678 2.858-2.024 1.974 2.284 6.734 1.602 7.935.476 1.338 1.94 9.127 1.203 9.67-.309 1.678 1.968 6.875 1.968 8.552 0 .543 1.512 8.331 2.249 9.669.309.425.398 1.297.737 2.33.912.346-.662.676-1.341.978-2.048C48.532 26.192 49.904 21.645 49.962 21.444zM0 29h.196c-.003-.016-.004-.031-.006-.046C.124 28.97.059 28.985 0 29zM49.857 29c-1.086-.275-3.435-.647-3.047-2.07-1.277 1.477-3.715 1.71-5.606 1.388-.122.233-.254.454-.381.682H49.857z"/><path fill="none" stroke="#000000" stroke-miterlimit="10" stroke-width="2" d="M26 20H31V25H26zM21 20H26V25H21zM16 20H21V25H16zM11 20H16V25H11zM6 20H11V25H6zM21 10H26V15H21zM21 15H26V20H21zM16 15H21V20H16zM11 15H16V20H11z"/><path d="M0.196,29c0.242,1.469,0.724,3.014,1.482,4.507c5.43,1.278,11.128-0.666,11.185-0.686c0.523-0.182,1.092,0.095,1.273,0.615c0.182,0.521-0.094,1.092-0.615,1.273c-0.192,0.066-3.621,1.238-7.84,1.238c-0.834,0-1.7-0.053-2.577-0.162C5.728,39.265,10.169,42,17,42c10.804,0,19.124-4.591,23.823-13H0.196z M16,33c-0.552,0-1-0.448-1-1s0.448-1,1-1c0.128,0,0.25,0.024,0.362,0.068c-0.122,0.07-0.204,0.202-0.204,0.353c0,0.225,0.183,0.408,0.408,0.408c0.154,0,0.289-0.086,0.358-0.212C16.973,31.735,17,31.864,17,32C17,32.552,16.552,33,16,33z"/></svg>